<svg width="1458" height="718" viewBox="0 0 1458 718" fill="none" xmlns="http://www.w3.org/2000/svg">
<g clip-path="url(#clip0)">
<path fill-rule="evenodd" clip-rule="evenodd" d="M614.097 13.384C538.476 20.9293 469.312 57.0863 395.941 75.4177C352.927 87.0599 308.266 96.1546 263.411 92.1842C179.797 253.708 92.8321 414.17 16.8713 579.132C16.3661 584.31 5.27117 596.903 16.2255 595.578C112.192 599.925 208.186 589.704 304.019 585.316C417.367 579.8 530.75 568.354 644.318 571.332C654.483 571.725 670.732 573.467 668.468 585.973C694.114 600.486 726.398 597.133 755.09 595.485C768.565 592.831 787.974 592.899 795.932 580.471C791.973 566.276 814.98 571.999 823.997 570.726C1022.26 574.253 1220.45 587.833 1418.78 583.642C1429.19 582.463 1442.85 583.549 1451.6 579.725C1418.41 513.263 1373.13 453.467 1332.32 391.484C1264.45 293.146 1195.8 194.596 1125.35 98.3521C997.891 95.0657 881.315 33.5401 756.582 16.1308C727.294 12.6 687.347 12.1957 673.857 44.2113C668.584 53.605 665.651 31.5733 658.843 27.3851C647.522 15.1878 629.971 12.7286 614.086 13.3971L614.097 13.384Z" fill="white"/>
<path fill-rule="evenodd" clip-rule="evenodd" d="M613.799 15.0242C529.534 16.732 377.272 106.601 257.596 93.5421C257.596 93.5421 -7.97113 597.29 2.11103 606.242C25.5333 627.087 646.814 566.234 660.122 589.364C648.214 618.806 809.725 618.014 799.055 585.167C801.679 578.463 1443.22 612.717 1455.57 591.322C1466.7 572.05 1126.52 100.078 1126.52 100.078C973.072 102.92 714.913 -42.5152 669.172 43.7525C659.021 22.269 639.581 14.5076 613.787 15.0304L613.799 15.0242ZM612.121 22.7644C622.043 22.3965 632.331 23.2079 641.492 27.2405C658.363 30.6588 655.666 57.9053 673.941 56.1491C680.442 31.1414 709.43 22.2198 732.963 23.7894C864.988 35.0858 988.463 100.765 1121.99 104.611C1153.62 147.541 1182.25 193.988 1213.06 237.526C1418.84 544.263 1434.27 562.765 1421.67 572.403C1110.31 557.318 902.283 508 808.771 529.552C796.555 532.367 790.512 548.418 780.801 551.124C746.284 559.768 707.528 563.504 673.758 550.751C671.295 544.026 666.002 531.142 657.533 530.376C577.145 523.101 495.834 531.417 415.287 535.784C282.336 541.36 164.662 587.556 31.4548 584.232C106.765 417.963 180.208 260.993 264.505 98.1496C291.754 99.8992 318.882 101.177 345.533 96.1359C437.137 81.1423 519.961 33.2786 612.115 22.7447L612.121 22.7644Z" fill="#FFC700" stroke="#FFC700" stroke-width="0.59524"/>
<path fill-rule="evenodd" clip-rule="evenodd" d="M623.048 1.058C545.843 9.43112 474.474 45.2378 399.19 64.4376C367.595 72.9889 335.424 80.0708 302.665 81.0701C233.708 225.698 164.499 370.177 96.5049 515.258C229.614 498.242 355.923 449.357 487.379 424.652C562.483 410.259 647.521 415.526 707.516 467.513C720.819 478.367 732.85 490.415 743.694 503.602C798.849 442.419 881.102 407.833 963.932 411.99C1102.3 417.404 1229.42 480.983 1364.29 505.184C1361.18 494.523 1344.66 474.985 1336.4 460.918L1081.97 80.5927C970.116 64.2845 865.705 12.9876 752.916 3.28625C727.648 1.40136 692.071 6.40401 685.849 36.1711C681.053 64.2659 677.615 45.2653 674.125 28.2791C668.687 5.11761 643.711 -0.759 623.028 1.04907L623.048 1.058Z" fill="white"/>
<path fill-rule="evenodd" clip-rule="evenodd" d="M624.541 2.10059C546.223 3.1347 400.386 81.5973 295.67 82.2986C90.6851 511.712 83.542 529.736 83.542 529.736C385.679 490.54 591.32 334.45 740.24 519.758C917.566 326.567 1142.39 482.379 1375.96 521.064L1082.34 82.3096C944.369 64.5237 705.431 -52.4439 677.861 38.667C672.32 11.4561 652.854 1.73859 624.526 2.11161L624.541 2.10059ZM627.525 11.0529C633.068 11.1503 638.682 11.8304 643.656 13.291C663.02 17.0477 666.464 33.0762 675.23 46.7936C693.001 74.6034 693.364 77.9269 686.829 48.6355C683.022 31.57 715.593 12.2622 737.18 13.2917C853.243 18.7876 960.304 73.6454 1074.91 90.4131C1106.07 136.935 1137.28 183.398 1168.44 229.92C1229.3 319.835 1288.7 411.286 1350.07 500.543C1230.39 479.316 1110.94 422.339 986.232 411.951C896.594 400.55 802.668 432.875 741.098 498.117C733.486 493.132 725.899 482.041 717.508 475.457C666.02 425.634 590.668 410.227 520.952 417.639C379.172 436.337 244.81 492.579 103.045 512.293C168.932 371.544 231.681 226.94 298.529 86.6388C409.585 81.3509 512.737 23.8591 622.03 11.1497C623.831 11.0618 625.684 11.024 627.531 11.0565L627.525 11.0529Z" fill="black" stroke="black" stroke-width="0.59524"/>
<path fill-rule="evenodd" clip-rule="evenodd" d="M743.891 129.226C737.299 135.272 723.678 147.977 736.805 155.337C788.105 183.203 849.693 177.178 904.55 191.239C926.502 197.968 956.774 204.958 963.759 230.125C963.986 256.934 934.864 271.431 912.943 278.801C819.951 304.51 721.826 298.679 626.22 300.326C561.353 301.525 491.682 303.087 434.979 336.899C424.47 341.318 422.691 355.346 433.673 360.119C473.969 382.822 521.731 387.362 565.574 401.554C602.618 413.32 641.952 422.134 674.798 443.394C692.186 456.118 701.592 476.601 701.092 497.947C713.601 546.886 761.967 573.107 795.785 606.556C822.66 630.993 847.455 659.503 860.539 693.964C868.464 669.626 870.412 641.491 885.901 620.946C908.491 612.222 933.68 623.883 956.491 627.545C974.129 631.911 991.443 637.007 1008.8 642.208C955.145 593.301 878.94 580.189 823.988 533.66C803.026 517.392 796.818 490.71 785.291 468.476C761.086 429.882 711.243 424.899 672.746 409.354C625.12 392.781 569.171 394.773 527.195 364.408C511.775 353.538 524.249 332.224 539.13 328.598C629.067 302.453 724.736 316.698 817.044 306.145C863.687 300.242 912.23 298.128 956.297 280.759C979.252 271.016 1003.13 242.789 986.042 218.185C960.313 186.07 914.861 181.991 876.854 175.569C835.672 168.091 788.609 180.403 751.07 158.131C741.463 151.383 739.488 137.802 745.009 127.824L743.89 129.223L743.891 129.226Z" fill="white"/>
<path fill-rule="evenodd" clip-rule="evenodd" d="M686.604 48.7724C685.307 43.4434 677.215 50.0677 683.418 59.1421C688.45 66.503 690.599 72.8547 700.113 78.8779C713.599 87.4145 771.789 89.3796 729.362 132.798C686.211 176.957 851.255 187.261 877.805 191.919C927.998 200.727 965.134 219.003 952.772 241.622C940.094 264.82 906.389 281.642 808.432 289.553C710.475 297.464 644.635 291.304 559.849 296.267C475.775 301.189 342.893 345.798 468.378 382.061C533.329 400.83 596.573 412.305 657.755 440.997C673.402 448.335 690.672 468.058 690.949 485.478C692.29 569.893 831.166 602.103 858.413 716.093C858.413 716.093 877.167 634.373 885.827 626.009C899.411 612.888 971.834 633.658 1027.84 655.011C944.121 566.338 824.731 569.934 797.901 487.716C779.939 432.677 735.919 423.05 695.426 411.621C621.763 390.826 628.148 393.12 595.198 384.476C570.021 377.871 541.574 371.883 527.031 358.466C517.956 350.095 526.059 340.423 534.957 335.526C550.25 327.11 619.89 317.58 667.174 317.435C738.946 317.214 812.868 314.838 882.286 303.447C918.586 297.489 955.317 293.819 978.42 270.341C992.516 256.016 995.505 245.299 995.017 235.278C992.645 186.577 909.783 171.892 852.169 167.016C827.996 164.97 718.108 173.113 751.186 123.746C763.966 104.675 762.325 88.5697 731.978 87.191C721.078 86.6963 692.127 71.4426 686.61 48.7646L686.604 48.7724ZM914.077 188.378C926.232 189.681 937.464 191.233 949.674 196.826C967.807 205.132 992.407 229.171 978.788 250.672C958.216 283.151 880.553 294.586 857.516 296.505C852.262 296.942 892.357 288.447 900.861 285.735C925.089 278.01 963.108 264.025 966.946 236.682C970.902 208.48 938.108 196.131 915.849 188.936C915.259 188.746 905.988 187.51 914.077 188.377L914.077 188.378ZM772.172 302.583C742.976 303.671 589.921 314.986 551.633 322.406C532.32 326.149 505.668 337.994 508.783 355.321C511.524 370.558 593.453 389.193 637.533 403.774C674.716 416.073 713.833 421.311 748.198 441.627C777.671 459.052 782.571 495.851 800.974 520.363C839.197 571.284 935.444 600.988 935.835 606.422C936.658 617.935 913.998 606.424 883.309 614.268C862.707 623.667 869.027 655.269 854.101 660.268C844.899 663.35 827.604 632.931 809.834 614.08C775.362 577.515 719.924 552.917 705.867 502.641C699.896 481.283 699.667 454.627 679.946 441.747C605.924 391.495 437.956 376.13 433.131 354.181C430.566 342.509 437.795 335.187 443.466 332.229C503.335 301.003 571.01 302.14 637.468 300.416C643.185 300.267 776.434 302.424 772.173 302.583L772.172 302.583Z" fill="#FFC700" stroke="#FFC700" stroke-width="0.59524"/>
</g>
<defs>
<clipPath id="clip0">
<rect width="1457" height="717" fill="white" transform="translate(0.264648 0.597656)"/>
</clipPath>
</defs>
</svg>
