<svg width="1457" height="717" viewBox="0 0 1457 717" fill="none" xmlns="http://www.w3.org/2000/svg">
<path fill-rule="evenodd" clip-rule="evenodd" d="M613.832 12.7858C538.211 20.3311 469.048 56.4881 395.677 74.8195C352.663 86.4617 308.002 95.5565 263.147 91.5861C179.532 253.11 92.5675 413.572 16.6066 578.533C16.1015 583.712 5.00652 596.304 15.9608 594.98C111.928 599.326 207.922 589.106 303.754 584.718C417.102 579.202 530.485 567.756 644.054 570.734C654.219 571.127 670.467 572.869 668.203 585.375C693.85 599.888 726.133 596.535 754.825 594.887C768.3 592.233 787.709 592.3 795.667 579.873C791.708 565.678 814.716 571.4 823.733 570.128C1022 573.655 1220.19 587.235 1418.52 583.044C1428.92 581.865 1442.59 582.951 1451.34 579.127C1418.14 512.665 1372.87 452.869 1332.05 390.886C1264.18 292.548 1195.53 193.998 1125.08 97.7539C997.627 94.4675 881.051 32.942 756.317 15.5327C727.029 12.0019 687.082 11.5976 673.592 43.6132C668.319 53.0069 665.386 30.9752 658.578 26.787C647.258 14.5897 629.707 12.1305 613.822 12.7989L613.832 12.7858Z" fill="white"/>
<path fill-rule="evenodd" clip-rule="evenodd" d="M613.534 14.426C529.27 16.1339 377.008 106.002 257.332 92.944C257.332 92.9439 -8.23578 596.692 1.84638 605.644C25.2687 626.489 646.55 565.636 659.857 588.766C647.949 618.208 809.461 617.416 798.791 584.569C801.414 577.865 1442.96 612.119 1455.31 590.724C1466.44 571.452 1126.26 99.4795 1126.26 99.4795C972.807 102.321 714.648 -43.1133 668.907 43.1544C658.756 21.6709 639.316 13.9095 613.522 14.4323L613.534 14.426ZM611.856 22.1662C621.778 21.7983 632.067 22.6097 641.227 26.6424C658.099 30.0607 655.401 57.3071 673.676 55.551C680.178 30.5432 709.165 21.6216 732.698 23.1913C864.724 34.4876 988.198 100.166 1121.72 104.013C1153.36 146.942 1181.99 193.39 1212.8 236.928C1418.57 543.665 1434.01 562.167 1421.4 571.805C1110.05 556.72 902.018 507.402 808.507 528.953C796.29 531.768 790.247 547.82 780.536 550.525C746.02 559.17 707.263 562.905 673.493 550.152C671.03 543.428 665.738 530.544 657.269 529.778C576.88 522.503 495.569 530.819 415.022 535.186C282.072 540.762 164.398 586.958 31.1902 583.634C106.501 417.365 179.943 260.394 264.241 97.5515C291.49 99.3011 318.617 100.579 345.268 95.5378C436.873 80.5441 519.696 32.6805 611.85 22.1466L611.856 22.1662Z" fill="black" stroke="black" stroke-width="0.59524"/>
<path fill-rule="evenodd" clip-rule="evenodd" d="M622.783 0.460341C545.578 8.83346 474.21 44.6402 398.926 63.8399C367.331 72.3912 335.16 79.4731 302.401 80.4725C233.443 225.1 164.235 369.579 96.2405 514.661C229.349 497.645 355.658 448.76 487.114 424.054C562.219 409.661 647.257 414.928 707.251 466.915C720.554 477.769 732.585 489.818 743.429 503.005C798.584 441.821 880.838 407.236 963.667 411.393C1102.04 416.807 1229.15 480.385 1364.03 504.586C1360.92 493.925 1344.39 474.387 1336.13 460.32L1081.7 79.995C969.852 63.6868 865.441 12.3899 752.651 2.68859C727.383 0.803706 691.806 5.80636 685.585 35.5735C680.789 63.6683 677.351 44.6676 673.86 27.6814C668.423 4.51995 643.447 -1.35666 622.763 0.451417L622.783 0.460341Z" fill="white"/>
<path fill-rule="evenodd" clip-rule="evenodd" d="M624.277 1.50293C545.959 2.53704 400.121 80.9997 295.406 81.7009C90.4205 511.115 83.2773 529.139 83.2773 529.139C385.414 489.942 591.055 333.852 739.975 519.16C917.301 325.969 1142.13 481.781 1375.7 520.466L1082.08 81.7119C944.104 63.926 705.167 -53.0416 677.597 38.0693C672.055 10.8584 652.589 1.14093 624.262 1.51395L624.277 1.50293ZM627.26 10.4553C632.803 10.5526 638.418 11.2328 643.392 12.6933C662.755 16.45 666.199 32.4786 674.966 46.1959C692.737 74.0058 693.099 77.3292 686.564 48.0379C682.757 30.9723 715.328 11.6646 736.915 12.6941C852.978 18.1899 960.039 73.0477 1074.65 89.8154C1105.81 136.338 1137.02 182.8 1168.17 229.323C1229.04 319.237 1288.44 410.688 1349.81 499.946C1230.12 478.719 1110.67 421.741 985.968 411.353C896.329 399.953 802.403 432.277 740.833 497.52C733.221 492.535 725.634 481.443 717.243 474.859C665.755 425.036 590.403 409.629 520.687 417.042C378.907 435.739 244.545 491.982 102.78 511.695C168.668 370.946 231.416 226.342 298.265 86.0411C409.321 80.7533 512.473 23.2614 621.765 10.5521C623.566 10.4641 625.419 10.4264 627.267 10.4588L627.26 10.4553Z" fill="black" stroke="black" stroke-width="0.59524"/>
<path fill-rule="evenodd" clip-rule="evenodd" d="M743.627 128.628C737.034 134.675 723.414 147.379 736.54 154.739C787.84 182.605 849.428 176.581 904.285 190.641C926.238 197.371 956.51 204.36 963.495 229.527C963.722 256.337 934.599 270.833 912.678 278.204C819.686 303.913 721.562 298.081 625.956 299.729C561.089 300.927 491.418 302.49 434.714 336.302C424.206 340.72 422.426 354.748 433.409 359.522C473.704 382.224 521.466 386.764 565.309 400.956C602.353 412.722 641.688 421.536 674.533 442.796C691.921 455.521 701.327 476.004 700.828 497.349C713.337 546.288 761.702 572.51 795.52 605.959C822.395 630.396 847.19 658.906 860.274 693.366C868.2 669.028 870.148 640.894 885.636 620.348C908.226 611.625 933.416 623.285 956.227 626.947C973.864 631.313 991.178 636.409 1008.53 641.61C954.881 592.703 878.675 579.591 823.723 533.063C802.761 516.794 796.554 490.112 785.027 467.878C760.821 429.284 710.978 424.301 672.482 408.757C624.855 392.183 568.906 394.175 526.93 363.81C511.51 352.941 523.984 331.626 538.866 328.001C628.802 301.855 724.471 316.1 816.78 305.547C863.422 299.644 911.965 297.531 956.033 280.162C978.987 270.419 1002.87 242.192 985.777 217.588C960.048 185.473 914.596 181.394 876.589 174.972C835.407 167.494 788.344 179.805 750.805 157.533C741.199 150.786 739.223 137.205 744.744 127.227L743.625 128.625L743.627 128.628Z" fill="white"/>
<path fill-rule="evenodd" clip-rule="evenodd" d="M686.339 48.1742C685.042 42.8452 676.95 49.4696 683.153 58.544C688.185 65.9049 690.334 72.2566 699.849 78.2797C713.334 86.8164 771.524 88.7814 729.097 132.2C685.946 176.359 850.99 186.663 877.54 191.321C927.733 200.129 964.869 218.405 952.507 241.024C939.83 264.222 906.124 281.044 808.167 288.955C710.21 296.866 644.37 290.706 559.584 295.669C475.51 300.591 342.628 345.2 468.113 381.463C533.064 400.232 596.308 411.706 657.49 440.399C673.137 447.737 690.407 467.46 690.684 484.88C692.025 569.294 830.901 601.505 858.149 715.495C858.149 715.495 876.902 633.775 885.562 625.411C899.146 612.29 971.569 633.059 1027.57 654.413C943.856 565.74 824.466 569.336 797.636 487.117C779.674 432.078 735.654 422.452 695.162 411.023C621.498 390.228 627.883 392.522 594.934 383.878C569.757 377.273 541.309 371.284 526.767 357.868C517.691 349.496 525.794 339.824 534.692 334.928C549.985 326.512 619.625 316.982 666.909 316.837C738.681 316.616 812.604 314.24 882.021 302.849C918.321 296.891 955.052 293.221 978.155 269.743C992.252 255.417 995.24 244.701 994.752 234.679C992.38 185.979 909.518 171.294 851.904 166.418C827.731 164.372 717.843 172.515 750.922 123.148C763.701 104.077 762.06 87.9715 731.714 86.5929C720.814 86.0981 691.862 70.8445 686.345 48.1664L686.339 48.1742ZM913.812 187.78C925.967 189.083 937.199 190.635 949.409 196.228C967.542 204.534 992.142 228.573 978.523 250.074C957.951 282.553 880.288 293.988 857.251 295.906C851.997 296.344 892.093 287.849 900.596 285.137C924.824 277.412 962.844 263.427 966.681 236.084C970.637 207.882 937.843 195.533 915.584 188.338C914.994 188.148 905.724 186.912 913.812 187.779L913.812 187.78ZM771.907 301.985C742.711 303.073 589.656 314.388 551.368 321.808C532.055 325.55 505.403 337.396 508.518 354.722C511.259 369.96 593.188 388.595 637.268 403.175C674.451 415.474 713.569 420.713 747.933 441.029C777.406 458.453 782.306 495.253 800.71 519.765C838.932 570.686 935.179 600.389 935.57 605.823C936.393 617.337 913.733 605.826 883.044 613.67C862.442 623.069 868.762 654.671 853.836 659.67C844.634 662.752 827.339 632.333 809.569 613.482C775.097 576.917 719.659 552.319 705.602 502.043C699.631 480.685 699.403 454.029 679.681 441.149C605.659 390.897 437.691 375.531 432.866 353.583C430.301 341.911 437.53 334.589 443.201 331.631C503.07 300.405 570.745 301.542 637.203 299.817C642.92 299.669 776.169 301.826 771.908 301.985L771.907 301.985Z" fill="#FFC700" stroke="#FFC700" stroke-width="0.59524"/>
</svg>
