<svg width="283" height="161" viewBox="0 0 283 161" fill="none" xmlns="http://www.w3.org/2000/svg">
<path d="M0 0H202.5C246.959 0 283 36.0411 283 80.5V80.5C283 124.959 246.959 161 202.5 161H0V0Z" fill="#FFC700"/>
<g opacity="0.48">
<path d="M121.105 128.072C120.13 127.904 118.157 126.479 116.674 124.869L114 121.969V116.082C114 99.266 116.312 50.1691 117.176 48.6264C117.84 47.4392 121.059 46.1838 145.694 37.5013C154.279 34.4756 162.061 32 162.986 32C163.938 32 165.759 32.9322 167.176 34.1457C169.703 36.3086 174.139 37.9085 177.61 37.9085C181.157 37.9085 181.225 38.355 180.393 56.1434C179.975 65.0705 179.299 79.6126 178.89 88.4589C178.394 99.1959 177.855 105.123 177.271 106.289C176.698 107.432 175.314 108.433 173.263 109.19C161.174 113.651 131.715 125.631 130.188 126.707C128.308 128.034 124.349 128.629 121.105 128.072L121.105 128.072ZM128.671 124.239L132.054 123.256V108.353L127.659 108.667C124.479 108.894 122.504 108.677 120.519 107.883C119.01 107.279 117.624 106.936 117.439 107.122C116.912 107.649 116.408 119.67 116.841 121.387C117.343 123.375 120.301 125.182 123.09 125.204C124.298 125.214 126.81 124.779 128.67 124.239L128.671 124.239ZM154.572 113.69C165.296 109.513 174.329 105.841 174.647 105.529C175.191 104.995 176.001 92.2221 177.7 57.3759C178.102 49.1269 178.309 42.256 178.16 42.107C178.01 41.958 168.905 44.592 157.925 47.9608L137.962 54.0861L137.531 58.4018C137.125 62.4557 136.555 72.3813 134.973 102.901C134.608 109.942 134.137 116.958 133.928 118.492C133.667 120.396 133.789 121.283 134.31 121.283C134.73 121.283 143.848 117.866 154.572 113.689L154.572 113.69ZM130.812 105.137C132.337 104.728 132.515 103.41 133.456 85.6118L133.901 77.1857L130.68 77.7173C126.127 78.4684 123.467 78.2271 120.585 76.8015L118.083 75.5634L117.61 88.4852C117.35 95.5925 117.324 101.996 117.552 102.716C117.781 103.436 118.626 104.343 119.431 104.731C120.993 105.486 128.515 105.753 130.812 105.137L130.812 105.137ZM130.665 74.561C132.151 74.1391 133.553 73.6221 133.781 73.4121C134.009 73.2022 134.401 68.7803 134.653 63.5857C135.071 54.9402 135.017 54.1761 134.018 54.5594C133.418 54.7898 131.31 55.1682 129.335 55.4004C126.372 55.7486 125.174 55.5564 122.499 54.3036C120.715 53.468 119.136 52.9084 118.99 53.0599C118.844 53.2113 118.625 57.5039 118.503 62.5988C118.269 72.4253 118.535 73.4908 121.527 74.7033C123.491 75.4994 127.584 75.4355 130.665 74.5608L130.665 74.561ZM147.917 45.3573C161.397 40.1794 167.833 37.3986 167.833 36.7526C167.833 36.1131 167.454 35.9434 166.684 36.2386C142.008 45.7046 126.011 52.0031 125.522 52.4443C123.487 54.2804 130.3 52.1245 147.917 45.3573V45.3573ZM155.524 46.3075C165.543 42.9624 173.741 39.9995 173.741 39.7234C173.741 38.1996 167.41 39.8599 152.9 45.189C143.962 48.4714 136.206 51.4166 135.664 51.734C132.517 53.5786 139.277 51.7314 155.524 46.3077V46.3075ZM139.932 44.4717L159.791 37.117C162.77 36.0118 165.207 34.8315 165.207 34.494C165.207 34.1566 164.542 34.0885 163.73 34.3427C137.74 42.4761 119.98 48.4213 119.538 49.1362C119.318 49.4918 119.485 50.2003 119.909 50.7106C120.569 51.5056 121.023 51.5081 123.084 50.7281C124.406 50.2274 131.988 47.4122 139.931 44.4722L139.932 44.4717Z" fill="black"/>
</g>
<path d="M151.258 56.6614H153.333V69.8711H151.258V56.6614ZM154.888 56.6614H157.492L159.511 64.5684H159.549V56.6614H161.399V69.8711H159.266L156.775 60.228H156.737V69.8711H154.888V56.6614ZM164.564 58.5485H162.394V56.6614H168.81V58.5485H166.64V69.8711H164.564V58.5485ZM169.815 56.6614H175.477V58.5485H171.891V62.0396H174.741V63.9267H171.891V67.984H175.477V69.8711H169.815V56.6614ZM176.671 56.6614H179.747C180.816 56.6614 181.596 56.913 182.087 57.4163C182.577 57.9069 182.823 58.668 182.823 59.6996V60.5111C182.823 61.8824 182.37 62.7504 181.464 63.1153V63.153C181.967 63.304 182.319 63.6122 182.521 64.0777C182.735 64.5432 182.842 65.1659 182.842 65.9459V68.2671C182.842 68.6445 182.854 68.9527 182.879 69.1917C182.904 69.4182 182.967 69.6446 183.068 69.8711H180.954C180.879 69.6572 180.829 69.4559 180.803 69.2672C180.778 69.0785 180.766 68.7388 180.766 68.2482V65.8327C180.766 65.2288 180.665 64.8074 180.464 64.5684C180.275 64.3293 179.942 64.2098 179.464 64.2098H178.747V69.8711H176.671V56.6614ZM179.501 62.3227C179.917 62.3227 180.225 62.2158 180.426 62.0019C180.64 61.788 180.747 61.4295 180.747 60.9263V59.9072C180.747 59.4292 180.659 59.0832 180.483 58.8693C180.319 58.6554 180.055 58.5485 179.69 58.5485H178.747V62.3227H179.501ZM184.282 56.6614H186.886L188.905 64.5684H188.943V56.6614H190.792V69.8711H188.66L186.169 60.228H186.131V69.8711H184.282V56.6614ZM192.335 56.6614H197.996V58.5485H194.411V62.0396H197.26V63.9267H194.411V67.984H197.996V69.8711H192.335V56.6614ZM200.813 58.5485H198.643V56.6614H205.059V58.5485H202.889V69.8711H200.813V58.5485ZM151.258 74.6614H154.39C155.46 74.6614 156.24 74.913 156.73 75.4163C157.221 75.9069 157.466 76.668 157.466 77.6996V78.228C157.466 78.9074 157.353 79.4609 157.126 79.8887C156.913 80.3164 156.579 80.6246 156.126 80.8134V80.8511C157.158 81.2034 157.674 82.1217 157.674 83.6063V84.7385C157.674 85.7575 157.403 86.5375 156.862 87.0785C156.334 87.6069 155.554 87.8711 154.522 87.8711H151.258V74.6614ZM154.145 80.0396C154.56 80.0396 154.868 79.9327 155.07 79.7188C155.283 79.505 155.39 79.1464 155.39 78.6432V77.9072C155.39 77.4292 155.302 77.0832 155.126 76.8693C154.963 76.6554 154.698 76.5485 154.334 76.5485H153.333V80.0396H154.145ZM154.522 85.984C154.887 85.984 155.158 85.8896 155.334 85.7009C155.51 85.4996 155.598 85.16 155.598 84.6819V83.5308C155.598 82.9269 155.491 82.5117 155.277 82.2853C155.076 82.0463 154.736 81.9267 154.258 81.9267H153.333V85.984H154.522ZM161.888 88.0598C160.869 88.0598 160.089 87.7704 159.548 87.1917C159.007 86.613 158.736 85.7953 158.736 84.7385V77.794C158.736 76.7372 159.007 75.9195 159.548 75.3408C160.089 74.7621 160.869 74.4727 161.888 74.4727C162.907 74.4727 163.687 74.7621 164.228 75.3408C164.769 75.9195 165.039 76.7372 165.039 77.794V84.7385C165.039 85.7953 164.769 86.613 164.228 87.1917C163.687 87.7704 162.907 88.0598 161.888 88.0598ZM161.888 86.1727C162.605 86.1727 162.963 85.7387 162.963 84.8706V77.6619C162.963 76.7938 162.605 76.3598 161.888 76.3598C161.17 76.3598 160.812 76.7938 160.812 77.6619V84.8706C160.812 85.7387 161.17 86.1727 161.888 86.1727ZM169.443 88.0598C168.424 88.0598 167.644 87.7704 167.103 87.1917C166.562 86.613 166.292 85.7953 166.292 84.7385V77.794C166.292 76.7372 166.562 75.9195 167.103 75.3408C167.644 74.7621 168.424 74.4727 169.443 74.4727C170.462 74.4727 171.242 74.7621 171.783 75.3408C172.324 75.9195 172.595 76.7372 172.595 77.794V84.7385C172.595 85.7953 172.324 86.613 171.783 87.1917C171.242 87.7704 170.462 88.0598 169.443 88.0598ZM169.443 86.1727C170.16 86.1727 170.519 85.7387 170.519 84.8706V77.6619C170.519 76.7938 170.16 76.3598 169.443 76.3598C168.726 76.3598 168.368 76.7938 168.368 77.6619V84.8706C168.368 85.7387 168.726 86.1727 169.443 86.1727ZM173.999 74.6614H176.074V80.2284L178.716 74.6614H180.792L178.32 79.5113L180.83 87.8711H178.66L176.905 81.9834L176.074 83.6629V87.8711H173.999V74.6614ZM151.258 92.6614H154.428C155.46 92.6614 156.233 92.9382 156.749 93.4917C157.265 94.0453 157.523 94.8567 157.523 95.9261V102.606C157.523 103.676 157.265 104.487 156.749 105.041C156.233 105.594 155.46 105.871 154.428 105.871H151.258V92.6614ZM154.39 103.984C154.73 103.984 154.988 103.883 155.164 103.682C155.353 103.481 155.447 103.154 155.447 102.701V95.8317C155.447 95.3788 155.353 95.0517 155.164 94.8504C154.988 94.6492 154.73 94.5485 154.39 94.5485H153.333V103.984H154.39ZM160.491 92.6614H163.303L165.454 105.871H163.378L163.001 103.248V103.286H160.642L160.265 105.871H158.34L160.491 92.6614ZM162.756 101.493L161.831 94.9637H161.793L160.887 101.493H162.756ZM167.218 94.5485H165.048V92.6614H171.464V94.5485H169.294V105.871H167.218V94.5485ZM173.207 92.6614H176.019L178.17 105.871H176.094L175.717 103.248V103.286H173.358L172.98 105.871H171.056L173.207 92.6614ZM175.471 101.493L174.547 94.9637H174.509L173.603 101.493H175.471ZM179.177 92.6614H182.31C183.379 92.6614 184.159 92.913 184.65 93.4163C185.14 93.9069 185.386 94.668 185.386 95.6996V96.228C185.386 96.9074 185.272 97.4609 185.046 97.8887C184.832 98.3164 184.499 98.6246 184.046 98.8134V98.8511C185.077 99.2034 185.593 100.122 185.593 101.606V102.739C185.593 103.758 185.323 104.538 184.782 105.079C184.253 105.607 183.473 105.871 182.442 105.871H179.177V92.6614ZM182.064 98.0396C182.479 98.0396 182.788 97.9327 182.989 97.7188C183.203 97.505 183.31 97.1464 183.31 96.6432V95.9072C183.31 95.4292 183.222 95.0832 183.046 94.8693C182.882 94.6554 182.618 94.5485 182.253 94.5485H181.253V98.0396H182.064ZM182.442 103.984C182.807 103.984 183.077 103.89 183.253 103.701C183.429 103.5 183.517 103.16 183.517 102.682V101.531C183.517 100.927 183.41 100.512 183.197 100.285C182.995 100.046 182.656 99.9267 182.178 99.9267H181.253V103.984H182.442ZM188.411 92.6614H191.222L193.374 105.871H191.298L190.92 103.248V103.286H188.562L188.184 105.871H186.259L188.411 92.6614ZM190.675 101.493L189.75 94.9637H189.713L188.807 101.493H190.675ZM197.024 106.06C196.018 106.06 195.256 105.777 194.741 105.211C194.225 104.632 193.967 103.808 193.967 102.739V101.984H195.929V102.889C195.929 103.745 196.288 104.173 197.005 104.173C197.357 104.173 197.622 104.072 197.798 103.871C197.986 103.657 198.081 103.317 198.081 102.852C198.081 102.298 197.955 101.814 197.703 101.399C197.452 100.971 196.986 100.461 196.307 99.8701C195.451 99.1153 194.854 98.4359 194.514 97.8321C194.174 97.2156 194.005 96.5237 194.005 95.7563C194.005 94.7121 194.269 93.9069 194.797 93.3408C195.326 92.7621 196.093 92.4727 197.099 92.4727C198.093 92.4727 198.842 92.7621 199.345 93.3408C199.861 93.9069 200.119 94.7246 200.119 95.794V96.3413H198.156V95.6619C198.156 95.209 198.068 94.8819 197.892 94.6806C197.716 94.4667 197.458 94.3598 197.118 94.3598C196.426 94.3598 196.08 94.7813 196.08 95.6242C196.08 96.1022 196.206 96.5488 196.458 96.964C196.722 97.3792 197.194 97.8824 197.873 98.4737C198.741 99.2285 199.339 99.9142 199.666 100.531C199.993 101.147 200.157 101.87 200.157 102.701C200.157 103.783 199.886 104.613 199.345 105.192C198.817 105.77 198.043 106.06 197.024 106.06ZM201.347 92.6614H207.008V94.5485H203.423V98.0396H206.272V99.9267H203.423V103.984H207.008V105.871H201.347V92.6614Z" fill="black"/>
</svg>
