<svg width="283" height="161" viewBox="0 0 283 161" fill="none" xmlns="http://www.w3.org/2000/svg">
<rect x="-191" width="474" height="161" rx="80.5" fill="#FFC700"/>
<mask id="mask0" mask-type="alpha" maskUnits="userSpaceOnUse" x="167" y="41" width="79" height="79">
<circle cx="206.762" cy="80.2384" r="39.2384" fill="#C4C4C4"/>
</mask>
<g mask="url(#mask0)">
<g filter="url(#filter0_d)">
<g opacity="0.300003">
<g opacity="0.300003">
<path opacity="0.300003" d="M254.107 90.8522C230.733 90.3053 221.247 97.3881 213.731 115.6L206.519 78.6519L199.306 41.7046C210.729 25.671 216.309 16.4103 239.683 16.9573L246.895 53.9046L254.107 90.8522Z" fill="white"/>
</g>
<g opacity="0.300003">
<path opacity="0.300003" d="M254.107 90.8522C230.733 90.3053 221.247 97.3881 213.731 115.6L206.519 78.6519L199.306 41.7046C210.729 25.671 216.309 16.4103 239.683 16.9573L246.895 53.9046L254.107 90.8522Z" stroke="white" stroke-width="0.365356" stroke-miterlimit="10" stroke-linejoin="round"/>
</g>
</g>
<path d="M254.107 90.8522C230.733 90.3053 221.247 97.3881 213.731 115.6L206.519 78.6519L199.306 41.7046C210.729 25.671 216.309 16.4103 239.683 16.9573L246.895 53.9046L254.107 90.8522Z" stroke="white" stroke-width="0.365356" stroke-miterlimit="10" stroke-linejoin="round"/>
<g opacity="0.300003">
<g opacity="0.300003">
<path opacity="0.300003" d="M268.363 94.7649C244.97 94.1182 235.472 107.778 214.039 117.176H214.038L206.68 79.478L199.321 41.7806C220.754 32.3837 230.252 18.7234 253.646 19.3701L261.004 57.0675L268.363 94.7649Z" fill="white"/>
</g>
<g opacity="0.300003">
<path opacity="0.300003" d="M268.363 94.7649C244.97 94.1182 235.472 107.778 214.039 117.176H214.038L206.68 79.478L199.321 41.7806C220.754 32.3837 230.252 18.7234 253.646 19.3701L261.004 57.0675L268.363 94.7649Z" stroke="white" stroke-width="0.365356" stroke-miterlimit="10" stroke-linejoin="round"/>
</g>
</g>
<path d="M268.363 94.7649C244.97 94.1182 235.472 107.778 214.039 117.176H214.038L206.68 79.478L199.321 41.7806C220.754 32.3837 230.252 18.7234 253.646 19.3701L261.004 57.0675L268.363 94.7649Z" stroke="white" stroke-width="0.365356" stroke-miterlimit="10" stroke-linejoin="round"/>
<g opacity="0.300003">
<g opacity="0.300003">
<path opacity="0.300003" d="M277.25 101.411C253.829 100.621 235.751 109.209 214.346 118.75L206.776 79.9737L199.207 41.1978H199.207C220.612 31.6572 238.69 23.0685 262.111 23.8587H262.112L269.681 62.6347L277.25 101.411Z" fill="white"/>
</g>
<g opacity="0.300003">
<path opacity="0.300003" d="M277.25 101.411C253.829 100.621 235.751 109.209 214.346 118.75L206.776 79.9737L199.207 41.1978H199.207C220.612 31.6572 238.69 23.0685 262.111 23.8587H262.112L269.681 62.6347L277.25 101.411Z" stroke="white" stroke-width="0.365356" stroke-miterlimit="10" stroke-linejoin="round"/>
</g>
</g>
<path d="M277.25 101.411C253.829 100.621 235.751 109.209 214.346 118.75L206.776 79.9737L199.207 41.1978H199.207C220.612 31.6572 238.69 23.0685 262.111 23.8587H262.112L269.681 62.6347L277.25 101.411Z" stroke="white" stroke-width="0.365356" stroke-miterlimit="10" stroke-linejoin="round"/>
<g opacity="0.300003">
<g opacity="0.300003">
<path opacity="0.300003" d="M282.571 107.067C259.149 106.277 236.058 110.785 214.653 120.325L207.084 81.5489L199.515 42.773C220.92 33.2324 244.011 28.7247 267.432 29.5149L275.002 68.2912L282.571 107.067Z" fill="white"/>
</g>
<g opacity="0.300003">
<path opacity="0.300003" d="M282.571 107.067C259.149 106.277 236.058 110.785 214.653 120.325L207.084 81.5489L199.515 42.773C220.92 33.2324 244.011 28.7247 267.432 29.5149L275.002 68.2912L282.571 107.067Z" stroke="white" stroke-width="0.365356" stroke-miterlimit="10" stroke-linejoin="round"/>
</g>
</g>
<path d="M282.571 107.067C259.149 106.277 236.058 110.785 214.653 120.325L207.084 81.5489L199.515 42.773C220.92 33.2324 244.011 28.7247 267.432 29.5149L275.002 68.2912L282.571 107.067Z" stroke="white" stroke-width="0.365356" stroke-miterlimit="10" stroke-linejoin="round"/>
<g opacity="0.300003">
<g opacity="0.300003">
<path opacity="0.300003" d="M285.019 108.876C260.893 108.02 237.116 112.662 215.084 122.528L207.227 82.2807L199.37 42.0332C221.403 32.1667 245.18 27.5249 269.306 28.3817L277.162 68.6292L285.019 108.876Z" fill="white"/>
</g>
<g opacity="0.300003">
<path opacity="0.300003" d="M285.019 108.876C260.893 108.02 237.116 112.662 215.084 122.528L207.227 82.2807L199.37 42.0332C221.403 32.1667 245.18 27.5249 269.306 28.3817L277.162 68.6292L285.019 108.876Z" stroke="white" stroke-width="0.730711" stroke-miterlimit="10" stroke-linejoin="round"/>
</g>
</g>
<path d="M285.019 108.876C260.893 108.02 237.116 112.662 215.084 122.528L207.227 82.2807L199.37 42.0332C221.403 32.1667 245.18 27.5249 269.306 28.3817L277.162 68.6292L285.019 108.876Z" stroke="white" stroke-width="0.730711" stroke-miterlimit="10" stroke-linejoin="round"/>
<g opacity="0.300003">
<g opacity="0.300003">
<path opacity="0.300003" d="M213.076 115.727C191.357 114.832 185.45 107.553 165.662 116.55L158.414 79.4202L151.167 42.2909C170.954 33.2936 176.861 40.5734 198.58 41.4685L205.828 78.5978L213.076 115.727Z" fill="white"/>
</g>
<g opacity="0.300003">
<path opacity="0.300003" d="M213.076 115.727C191.357 114.832 185.45 107.553 165.662 116.55L158.414 79.4202L151.167 42.2909C170.954 33.2936 176.861 40.5734 198.58 41.4685L205.828 78.5978L213.076 115.727Z" stroke="white" stroke-width="0.365356" stroke-miterlimit="10" stroke-linejoin="round"/>
</g>
</g>
<path d="M213.076 115.727C191.357 114.832 185.45 107.553 165.662 116.55L158.414 79.4202L151.167 42.2909C170.954 33.2936 176.861 40.5734 198.58 41.4685L205.828 78.5978L213.076 115.727Z" stroke="white" stroke-width="0.365356" stroke-miterlimit="10" stroke-linejoin="round"/>
<g opacity="0.300003">
<g opacity="0.300003">
<path opacity="0.300003" d="M213.383 117.302C191.386 116.358 175.444 115.254 155.416 124.401L148.022 86.5217L140.628 48.6423C160.655 39.4945 176.597 40.599 198.595 41.5435L205.989 79.4224L213.383 117.302Z" fill="white"/>
</g>
<g opacity="0.300003">
<path opacity="0.300003" d="M213.383 117.302C191.386 116.358 175.444 115.254 155.416 124.401L148.022 86.5217L140.628 48.6423C160.655 39.4945 176.597 40.599 198.595 41.5435L205.989 79.4224L213.383 117.302Z" stroke="white" stroke-width="0.365356" stroke-miterlimit="10" stroke-linejoin="round"/>
</g>
</g>
<path d="M213.383 117.302C191.386 116.358 175.444 115.254 155.416 124.401L148.022 86.5217L140.628 48.6423C160.655 39.4945 176.597 40.599 198.595 41.5435L205.989 79.4224L213.383 117.302Z" stroke="white" stroke-width="0.365356" stroke-miterlimit="10" stroke-linejoin="round"/>
<g opacity="0.300003">
<g opacity="0.300003">
<path opacity="0.300003" d="M213.691 118.879C191.306 117.886 169.285 122.185 148.917 131.522L141.348 92.7469L133.779 53.9706C154.146 44.6325 176.168 40.3337 198.552 41.3264L206.121 80.1027L213.691 118.879Z" fill="white"/>
</g>
<g opacity="0.300003">
<path opacity="0.300003" d="M213.691 118.879C191.306 117.886 169.285 122.185 148.917 131.522L141.348 92.7469L133.779 53.9706C154.146 44.6325 176.168 40.3337 198.552 41.3264L206.121 80.1027L213.691 118.879Z" stroke="white" stroke-width="0.365356" stroke-miterlimit="10" stroke-linejoin="round"/>
</g>
</g>
<path d="M213.691 118.879C191.306 117.886 169.285 122.185 148.917 131.522L141.348 92.7469L133.779 53.9706C154.146 44.6325 176.168 40.3337 198.552 41.3264L206.121 80.1027L213.691 118.879Z" stroke="white" stroke-width="0.365356" stroke-miterlimit="10" stroke-linejoin="round"/>
<g opacity="0.300003">
<g opacity="0.300003">
<path opacity="0.300003" d="M213.998 120.454C191.251 119.532 168.854 123.903 148.124 133.312L140.555 94.5366L132.986 55.7606C153.716 46.3516 176.113 41.9798 198.86 42.9016L206.429 81.6779L213.998 120.454Z" fill="white"/>
</g>
<g opacity="0.300003">
<path opacity="0.300003" d="M213.998 120.454C191.251 119.532 168.854 123.903 148.124 133.312L140.555 94.5366L132.986 55.7606C153.716 46.3516 176.113 41.9798 198.86 42.9016L206.429 81.6779L213.998 120.454Z" stroke="white" stroke-width="0.365356" stroke-miterlimit="10" stroke-linejoin="round"/>
</g>
</g>
<path d="M213.998 120.454C191.251 119.532 168.854 123.903 148.124 133.312L140.555 94.5366L132.986 55.7606C153.716 46.3516 176.113 41.9798 198.86 42.9016L206.429 81.6779L213.998 120.454Z" stroke="white" stroke-width="0.365356" stroke-miterlimit="10" stroke-linejoin="round"/>
<g opacity="0.300003">
<g opacity="0.300003">
<path opacity="0.300003" d="M214.428 122.656C190.657 121.731 167.245 126.301 145.567 136.099L137.711 95.8511L129.854 55.6035C151.532 45.8057 174.944 41.2359 198.715 42.1613L206.572 82.4089L214.428 122.656Z" fill="white"/>
</g>
<g opacity="0.300003">
<path opacity="0.300003" d="M214.428 122.656C190.657 121.731 167.245 126.301 145.567 136.099L137.711 95.8511L129.854 55.6035C151.532 45.8057 174.944 41.2359 198.715 42.1613L206.572 82.4089L214.428 122.656Z" stroke="white" stroke-width="0.730711" stroke-miterlimit="10" stroke-linejoin="round"/>
</g>
</g>
<path d="M214.428 122.656C190.657 121.731 167.245 126.301 145.567 136.099L137.711 95.8511L129.854 55.6035C151.532 45.8057 174.944 41.2359 198.715 42.1613L206.572 82.4089L214.428 122.656Z" stroke="white" stroke-width="0.730711" stroke-miterlimit="10" stroke-linejoin="round"/>
</g>
</g>
<g style="mix-blend-mode:hue">
<text fill="black" xml:space="preserve" style="white-space: pre" font-family="Shrimp" font-size="14.2444" letter-spacing="0em"><tspan x="97.997" y="70.5611">INTERNET&#10;</tspan><tspan x="127.14" y="84.5611">BOOK&#10;</tspan><tspan x="89.9011" y="98.5611">DATABASE</tspan></text>
</g>
<defs>
<filter id="filter0_d" x="126.489" y="9.75195" width="161.895" height="126.712" filterUnits="userSpaceOnUse" color-interpolation-filters="sRGB">
<feFlood flood-opacity="0" result="BackgroundImageFix"/>
<feColorMatrix in="SourceAlpha" type="matrix" values="0 0 0 0 0 0 0 0 0 0 0 0 0 0 0 0 0 0 127 0"/>
<feOffset dy="-4"/>
<feGaussianBlur stdDeviation="1.5"/>
<feColorMatrix type="matrix" values="0 0 0 0 0 0 0 0 0 0 0 0 0 0 0 0 0 0 0.43 0"/>
<feBlend mode="normal" in2="BackgroundImageFix" result="effect1_dropShadow"/>
<feBlend mode="normal" in="SourceGraphic" in2="effect1_dropShadow" result="shape"/>
</filter>
</defs>
</svg>
